<?xml version="1.0" encoding="UTF-8" standalone="no"?>
<svg
   xmlns:dc="http://purl.org/dc/elements/1.1/"
   xmlns:cc="http://creativecommons.org/ns#"
   xmlns:rdf="http://www.w3.org/1999/02/22-rdf-syntax-ns#"
   xmlns:svg="http://www.w3.org/2000/svg"
   xmlns="http://www.w3.org/2000/svg"
   xmlns:sodipodi="http://sodipodi.sourceforge.net/DTD/sodipodi-0.dtd"
   xmlns:inkscape="http://www.inkscape.org/namespaces/inkscape"
   version="1.1"
   id="svg10"
   xml:space="preserve"
   width="669.71069"
   height="424"
   viewBox="0 0 669.71069 424"
   sodipodi:docname="LOGO PC LEY MARCO DE SUELOS.ai"
   inkscape:version="1.0.1 (3bc2e813f5, 2020-09-07)"><metadata
     id="metadata16"><rdf:RDF><cc:Work
         rdf:about=""><dc:format>image/svg+xml</dc:format><dc:type
           rdf:resource="http://purl.org/dc/dcmitype/StillImage" /><dc:title></dc:title></cc:Work></rdf:RDF></metadata><defs
     id="defs14"><clipPath
       clipPathUnits="userSpaceOnUse"
       id="clipPath26"><path
         d="M 0,318 H 502.283 V 0 H 0 Z"
         id="path24" /></clipPath></defs><sodipodi:namedview
     pagecolor="#ffffff"
     bordercolor="#666666"
     borderopacity="1"
     objecttolerance="10"
     gridtolerance="10"
     guidetolerance="10"
     inkscape:pageopacity="0"
     inkscape:pageshadow="2"
     inkscape:window-width="1920"
     inkscape:window-height="1017"
     id="namedview12"
     showgrid="false"
     inkscape:snap-page="true"
     inkscape:zoom="1.3632075"
     inkscape:cx="231.05604"
     inkscape:cy="212"
     inkscape:window-x="1358"
     inkscape:window-y="-8"
     inkscape:window-maximized="1"
     inkscape:current-layer="g22" /><g
     id="g18"
     inkscape:groupmode="layer"
     inkscape:label="LOGO PC LEY MARCO DE SUELOS"
     transform="matrix(1.3333333,0,0,-1.3333333,0,424)"><g
       id="g20"><g
         id="g22"
         clip-path="url(#clipPath26)"><g
           id="g120"
           transform="matrix(1.4036172,0,0,1.4036172,-105.29257,-104.37983)"><g
             id="g28"
             transform="translate(178.311,190.6641)"><path
               d="m 0,0 c -2.494,-3.195 -4.791,-6.549 -6.871,-10.046 7.147,2.142 16.719,3.235 27.853,3.235 15.182,0 33.255,-2.023 52.02,-6.163 35.834,-7.906 75.141,-4.044 87.664,-2.471 C 155.509,-5.347 148.604,3.717 140.365,11.361 122.453,7.94 97.951,4.814 73.766,6.69 39.797,9.325 13.498,5.301 0,0"
               style="fill:#f68313;fill-opacity:1;fill-rule:nonzero;stroke:none"
               id="path30" /></g><g
             id="g32"
             transform="translate(311.2974,208.2207)"><path
               d="m 0,0 c -16.035,12.148 -35.98,19.379 -57.573,19.379 -25.428,0 -48.58,-10.021 -65.742,-26.301 16.806,3.892 39.919,5.305 64.663,3.385 C -38.017,-5.139 -16.777,-2.871 0,0"
               style="fill:#fab60a;fill-opacity:1;fill-rule:nonzero;stroke:none"
               id="path34" /></g><g
             id="g36"
             transform="translate(348.0005,144.2959)"><path
               d="m 0,0 c -1.094,8.319 -3.256,16.312 -6.356,23.826 -9.772,-1.374 -52.549,-6.514 -92.473,2.292 -44.653,9.852 -77.31,5.897 -83.825,-0.703 -5.046,-11.631 -7.86,-24.439 -7.86,-37.889 h 0.06 l -0.06,-0.002 v -1.837 c 9.759,2.625 19.348,4.86 29.311,6.571 2.326,0.332 5.334,0.655 8.014,0.986 17.339,1.335 32.349,-2.328 47.035,-6.315 4.32,-1.012 10.339,-1.998 16.681,-2.678 8.348,-1.554 17.277,-2.796 21.971,-4.848 l 4.615,1.83 1.046,0.371 c 0.329,0.353 42.758,14.65 51.096,17.329 1.671,0.652 3.664,1.015 5.336,1.339 C -3.521,0.364 -1.692,0.265 0,0"
               style="fill:#db4e20;fill-opacity:1;fill-rule:nonzero;stroke:none"
               id="path38" /></g><g
             id="g40"
             transform="translate(356.6187,132.5967)"><path
               d="m 0,0 v 0 c -1.338,3.666 -7.357,5.655 -14.026,5.332 -1.672,-0.325 -3.666,-0.688 -5.336,-1.34 -8.339,-2.679 -50.726,-17.013 -51.054,-17.366 H -71.4 l 0.657,-0.656 c 4.676,-3.994 7.328,-8.338 6.016,-12.003 -1.34,-5.005 -8.37,-8.015 -19.691,-8.995 -10.008,-1.017 -22.696,0 -37.352,2.979 1.31,0 3.304,0 4.973,-0.332 10.691,0 20.7,0 28.684,0.686 12.035,0.98 18.025,3.664 18.705,7.983 0.331,3.334 -1.335,5.688 -5.689,7.684 -4.316,2.353 -13.997,3.664 -22.995,5.338 -6.342,0.68 -12.36,1.666 -16.68,2.677 -14.686,3.989 -29.697,7.651 -47.035,6.317 -2.679,-0.332 -5.688,-0.655 -8.013,-0.987 -13.701,-2.352 -26.69,-5.687 -40.392,-9.681 h -1.637 l 20.343,-29.367 c 3.306,0.688 7.33,1.668 10.993,1.668 4.674,0.685 9.353,0.353 13.673,0 5.33,-0.98 19.691,-3.997 33.035,-6.644 14.031,-3.007 27.374,-5.36 32.018,-6.346 3.34,-0.356 6.018,-0.356 9.029,0 6.669,0.33 13.671,3.993 20.344,7.657 1.998,1.336 3.991,2.355 6.017,3.334 L -6.02,-9.356 C 0.654,-5.36 0.654,-2.028 0,0"
               style="fill:#5d3728;fill-opacity:1;fill-rule:nonzero;stroke:none"
               id="path42" /></g><g
             id="g44"
             transform="translate(350.4419,223.4141)"><path
               d="m 0,0 c -0.254,0.15 -0.507,0.302 -0.769,0.441 -4.953,2.622 -10.707,2.86 -15.786,0.657 L -16.865,0.961 -16.89,0.95 c -0.329,-0.143 -0.656,-0.288 -0.981,-0.432 l -0.269,-0.12 c -0.186,-0.082 -0.374,-0.164 -0.559,-0.248 -0.295,-0.13 -0.591,-0.263 -0.885,-0.396 -0.452,-0.204 -0.944,-0.428 -1.504,-0.684 l -0.511,-0.235 c -0.213,-0.099 -0.424,-0.196 -0.63,-0.291 -0.289,-0.134 -0.576,-0.269 -0.868,-0.405 -0.883,-0.414 -1.771,-0.836 -2.634,-1.252 -0.281,-0.135 -0.559,-0.27 -0.83,-0.401 -0.346,-0.17 -0.693,-0.338 -1.039,-0.507 l -0.661,-0.327 c -0.286,-0.141 -0.57,-0.283 -0.853,-0.425 -0.279,-0.138 -0.556,-0.277 -0.831,-0.416 l -0.836,-0.423 -0.868,-0.443 -0.82,-0.422 c -0.264,-0.136 -0.525,-0.272 -0.786,-0.408 3.097,-2.42 6.05,-5.011 8.849,-7.763 11.809,-11.614 20.828,-26.055 25.96,-42.228 0.022,0.015 0.046,0.03 0.067,0.044 0.994,0.648 1.988,1.309 2.956,1.96 0.195,0.131 0.392,0.263 0.585,0.393 0.847,0.572 1.714,1.166 2.646,1.813 0.165,0.113 0.332,0.23 0.498,0.346 l 0.028,0.021 c 0.22,0.153 0.439,0.306 0.658,0.46 0.421,0.294 0.854,0.599 1.284,0.907 0.205,0.145 0.409,0.289 0.613,0.436 0.146,0.103 0.293,0.209 0.438,0.314 0,0 0.481,0.346 0.699,0.504 l 0.298,0.216 c 2.339,1.702 4.257,3.967 5.544,6.55 0.902,1.808 1.484,3.786 1.75,5.814 -3.772,-0.261 -7.591,0.402 -11.055,1.967 -4.598,2.076 -8.437,5.664 -10.805,10.101 -0.885,1.657 -1.566,3.426 -2.024,5.259 -1.486,5.948 -0.566,12.119 2.589,17.376 C -1.17,-1.551 -0.599,-0.762 0,0"
               style="fill:#5d3728;fill-opacity:1;fill-rule:nonzero;stroke:none"
               id="path46" /></g><g
             id="g48"
             transform="translate(297.9429,261.1055)"><path
               d="m 0,0 c -2.308,-0.039 -4.578,-0.471 -6.69,-1.303 -3.163,-1.246 -5.905,-3.332 -7.943,-6.039 -0.033,-0.043 -0.066,-0.086 -0.098,-0.131 l -0.328,-0.445 c -0.162,-0.219 -0.321,-0.439 -0.481,-0.66 -0.685,-0.939 -1.375,-1.901 -2.053,-2.859 -0.124,-0.174 -0.248,-0.35 -0.372,-0.526 -0.1,-0.141 -0.198,-0.282 -0.293,-0.418 -0.462,-0.656 -0.923,-1.319 -1.368,-1.969 l -0.028,-0.039 c -0.125,-0.182 -0.249,-0.363 -0.373,-0.546 -0.29,-0.421 -0.571,-0.834 -0.834,-1.224 -0.148,-0.22 -0.296,-0.439 -0.443,-0.655 -0.438,-0.653 -0.878,-1.313 -1.342,-2.02 -0.252,-0.383 -0.504,-0.767 -0.752,-1.148 l -0.036,-0.053 c -0.101,-0.157 -0.205,-0.315 -0.305,-0.471 -0.159,-0.246 -0.319,-0.49 -0.475,-0.736 -0.14,-0.215 -0.276,-0.428 -0.412,-0.643 -0.408,-0.636 -0.811,-1.27 -1.193,-1.882 -0.123,-0.194 -0.246,-0.39 -0.368,-0.586 4.392,-0.768 8.687,-1.815 12.868,-3.123 11.935,-3.731 22.935,-9.579 32.563,-17.1 0.26,0.136 0.522,0.271 0.785,0.408 l 0.821,0.422 0.868,0.443 0.835,0.422 c 0.277,0.14 0.553,0.278 0.831,0.416 0.284,0.143 0.569,0.285 0.854,0.426 l 0.661,0.326 c 0.347,0.17 0.693,0.338 1.038,0.506 0.272,0.133 0.55,0.268 0.831,0.402 0.863,0.416 1.751,0.838 2.634,1.252 0.291,0.137 0.579,0.272 0.868,0.405 0.206,0.095 0.417,0.194 0.63,0.292 l 0.512,0.235 c 0.559,0.256 1.051,0.48 1.504,0.683 0.294,0.133 0.589,0.266 0.884,0.397 0.185,0.084 0.373,0.166 0.558,0.248 l 0.269,0.119 c 0.327,0.145 0.653,0.289 0.982,0.433 l 0.025,0.011 c 1.411,3.882 1.611,8.156 0.549,12.189 -0.224,0.85 -0.508,1.684 -0.84,2.498 -3.821,-2.516 -8.299,-3.836 -12.972,-3.756 -6.132,0.105 -11.853,2.59 -16.114,6.998 -1.487,1.537 -2.749,3.269 -3.75,5.146 C 0.291,-9.506 -0.581,-4.68 0,0"
               style="fill:#f68313;fill-opacity:1;fill-rule:nonzero;stroke:none"
               id="path50" /></g><g
             id="g52"
             transform="translate(283.3091,253.7637)"><path
               d="m 0,0 -0.025,0.252 c -0.097,0.907 -0.263,1.814 -0.495,2.694 -0.355,1.347 -0.872,2.661 -1.537,3.907 -1.355,2.538 -3.336,4.718 -5.718,6.378 -2.037,-4.292 -5.329,-7.848 -9.566,-10.2 -5.361,-2.974 -11.559,-3.683 -17.454,-1.997 -3.038,0.87 -5.81,2.323 -8.243,4.319 -2.344,1.923 -4.258,4.258 -5.689,6.94 -0.295,0.553 -0.554,1.121 -0.801,1.691 -0.084,-0.05 -0.172,-0.095 -0.255,-0.148 -4.753,-2.981 -7.84,-7.849 -8.469,-13.357 l -0.024,-0.225 -0.013,-0.109 c -0.027,-0.254 -0.056,-0.506 -0.083,-0.756 -0.02,-0.18 -0.067,-0.633 -0.067,-0.633 -0.247,-2.313 -0.464,-4.662 -0.651,-6.996 0,0 -0.041,-0.514 -0.054,-0.689 -0.113,-1.462 -0.214,-2.942 -0.301,-4.397 -0.021,-0.322 -0.039,-0.643 -0.057,-0.951 l -0.008,-0.147 c -0.012,-0.217 -0.025,-0.433 -0.036,-0.644 l -0.008,-0.149 c -0.014,-0.267 -0.028,-0.533 -0.042,-0.801 l -0.021,-0.427 -0.034,-0.741 c -0.013,-0.273 -0.025,-0.545 -0.037,-0.804 -0.014,-0.32 -0.027,-0.64 -0.039,-0.955 -0.016,-0.391 -0.029,-0.738 -0.04,-1.057 4.204,1.293 8.523,2.325 12.938,3.076 5.654,0.962 11.464,1.465 17.392,1.465 6.099,0 12.076,-0.531 17.884,-1.55 0.122,0.197 0.244,0.392 0.367,0.586 0.383,0.612 0.787,1.246 1.193,1.882 0.138,0.215 0.274,0.428 0.412,0.643 0.157,0.246 0.316,0.492 0.477,0.736 0.1,0.157 0.203,0.314 0.305,0.471 l 0.034,0.052 c 0.249,0.383 0.5,0.766 0.752,1.149 0.466,0.707 0.906,1.367 1.344,2.019 0.146,0.217 0.293,0.436 0.441,0.655 0.264,0.391 0.545,0.803 0.835,1.226 0.123,0.182 0.247,0.363 0.372,0.544 l 0.028,0.041 c 0.446,0.65 0.907,1.312 1.368,1.968 0.096,0.135 0.194,0.276 0.294,0.418 0.123,0.176 0.247,0.351 0.371,0.526 0.679,0.958 1.369,1.92 2.053,2.859 0.16,0.22 0.32,0.44 0.482,0.66 l 0.327,0.446 C -0.065,-0.086 -0.033,-0.043 0,0"
               style="fill:#fab60a;fill-opacity:1;fill-rule:nonzero;stroke:none"
               id="path54" /></g><g
             id="g56"
             transform="translate(182.0649,209.1172)"><path
               d="m 0,0 c -0.156,0.301 -0.31,0.6 -0.462,0.896 -0.079,0.152 -0.157,0.305 -0.235,0.458 -0.278,0.544 -0.507,0.993 -0.716,1.411 -0.108,0.214 -0.215,0.426 -0.322,0.639 l -0.008,0.017 c -0.1,0.198 -0.199,0.397 -0.297,0.597 -0.094,0.187 -0.187,0.374 -0.28,0.563 l -0.031,0.061 c -0.11,0.225 -0.221,0.45 -0.332,0.676 -0.275,0.56 -0.541,1.109 -0.744,1.529 -0.092,0.188 -0.183,0.38 -0.275,0.571 l -0.025,0.053 c -0.087,0.181 -0.179,0.374 -0.271,0.566 -0.121,0.252 -0.24,0.504 -0.36,0.758 -0.104,0.219 -0.205,0.437 -0.31,0.656 l -0.019,0.041 c -0.07,0.151 -0.14,0.301 -0.209,0.449 -0.088,0.186 -0.174,0.372 -0.26,0.558 l -0.014,0.028 c -0.116,0.25 -0.231,0.5 -0.346,0.75 -0.302,0.655 -0.595,1.299 -0.868,1.906 -0.133,0.294 -0.263,0.588 -0.396,0.883 l -0.008,0.018 c -0.117,0.261 -0.233,0.523 -0.349,0.785 -0.135,0.306 -0.271,0.613 -0.406,0.922 l -0.047,0.107 c -2.24,0.818 -4.595,1.229 -6.959,1.229 -2.109,0 -4.226,-0.326 -6.279,-0.985 -0.784,-0.251 -1.538,-0.564 -2.277,-0.902 0.252,-0.409 0.496,-0.823 0.722,-1.248 2.305,-4.316 3.174,-9.367 2.446,-14.221 -0.755,-5.027 -3.088,-9.553 -6.747,-13.09 -4.409,-4.261 -10.212,-6.55 -16.343,-6.447 -0.341,0.006 -0.675,0.047 -1.013,0.068 0.059,-1.474 0.259,-2.941 0.637,-4.377 0.401,-1.525 0.981,-3.002 1.723,-4.392 1.404,-2.631 3.403,-4.946 5.782,-6.699 l 0.07,-0.053 0.914,-0.659 c 0.149,-0.109 0.298,-0.216 0.448,-0.323 0.253,-0.182 0.507,-0.365 0.761,-0.545 0.27,-0.193 0.539,-0.385 0.809,-0.575 0.753,-0.534 1.501,-1.058 2.229,-1.562 l 0.4,-0.277 c 0.141,-0.098 0.526,-0.361 0.526,-0.361 0.238,-0.165 0.782,-0.536 0.782,-0.536 0.266,-0.181 0.532,-0.362 0.799,-0.543 0.209,-0.141 0.42,-0.283 0.63,-0.424 0.058,-0.039 0.118,-0.08 0.178,-0.119 0.183,-0.125 0.367,-0.246 0.55,-0.369 l 0.107,-0.071 c 0.193,-0.128 0.383,-0.255 0.573,-0.38 C -20.905,-25.877 -11.835,-11.526 0,0"
               style="fill:#5d3728;fill-opacity:1;fill-rule:nonzero;stroke:none"
               id="path58" /></g><g
             id="g60"
             transform="translate(225.0327,254.0176)"><path
               d="m 0,0 -0.135,0.186 c -3.178,4.37 -8.094,7.043 -13.53,7.41 0.328,-4.657 -0.754,-9.295 -3.207,-13.381 -3.155,-5.258 -8.169,-8.971 -14.117,-10.456 -4.992,-1.247 -10.322,-0.769 -15.004,1.345 -1.373,0.621 -2.667,1.39 -3.886,2.261 -2.535,-4.617 -2.746,-9.539 -1.711,-13.467 0.232,-0.882 0.533,-1.753 0.897,-2.589 l 0.134,-0.311 c 0.152,-0.342 0.303,-0.686 0.454,-1.029 2.221,-5.03 4.608,-9.987 7.138,-14.869 2.853,2.779 5.865,5.392 9.021,7.824 9.614,7.412 20.577,13.162 32.456,16.818 0.011,0.322 0.024,0.668 0.039,1.059 0.013,0.316 0.026,0.636 0.04,0.955 0.011,0.259 0.022,0.531 0.036,0.805 l 0.035,0.739 0.021,0.429 c 0.013,0.265 0.027,0.533 0.042,0.8 l 0.007,0.149 c 0.012,0.21 0.024,0.426 0.037,0.644 l 0.007,0.147 c 0.018,0.308 0.037,0.629 0.057,0.95 0.087,1.457 0.189,2.936 0.302,4.399 0.013,0.174 0.054,0.688 0.054,0.688 0.186,2.333 0.404,4.683 0.65,6.996 0,0 0.048,0.453 0.068,0.633 0.027,0.251 0.054,0.503 0.082,0.756 z"
               style="fill:#db4e20;fill-opacity:1;fill-rule:nonzero;stroke:none"
               id="path62" /></g><g
             id="g64"
             transform="translate(373.0845,190.6367)"><path
               d="M 0,0 C -10.255,-2.563 -20.646,3.674 -23.208,13.93 -25.77,24.186 -19.533,34.576 -9.277,37.139 0.979,39.701 11.368,33.463 13.932,23.207 16.492,12.953 10.256,2.562 0,0"
               style="fill:#5d3728;fill-opacity:1;fill-rule:nonzero;stroke:none"
               id="path66" /></g><g
             id="g68"
             transform="translate(334.0054,244.4951)"><path
               d="m 0,0 c -7.601,-7.346 -19.718,-7.142 -27.064,0.46 -7.346,7.602 -7.141,19.719 0.46,27.064 7.6,7.346 19.717,7.141 27.064,-0.461 C 7.807,19.463 7.601,7.347 0,0"
               style="fill:#f68313;fill-opacity:1;fill-rule:nonzero;stroke:none"
               id="path70" /></g><g
             id="g72"
             transform="translate(273.2319,271.5986)"><path
               d="m 0,0 c -2.909,-10.163 -13.506,-16.043 -23.668,-13.134 -10.162,2.909 -16.043,13.505 -13.134,23.668 2.909,10.163 13.506,16.043 23.668,13.134 C -2.971,20.759 2.909,10.162 0,0"
               style="fill:#fab60a;fill-opacity:1;fill-rule:nonzero;stroke:none"
               id="path74" /></g><g
             id="g76"
             transform="translate(207.0483,264.6836)"><path
               d="m 0,0 c 2.563,-10.254 -3.675,-20.646 -13.93,-23.207 -10.256,-2.563 -20.646,3.675 -23.208,13.93 -2.561,10.256 3.674,20.646 13.93,23.208 C -12.952,16.492 -2.562,10.256 0,0"
               style="fill:#db4e20;fill-opacity:1;fill-rule:nonzero;stroke:none"
               id="path78" /></g><g
             id="g80"
             transform="translate(153.1899,225.6045)"><path
               d="m 0,0 c 7.347,-7.601 7.141,-19.718 -0.46,-27.063 -7.601,-7.346 -19.717,-7.141 -27.064,0.459 -7.346,7.6 -7.14,19.717 0.46,27.064 C -19.463,7.806 -7.347,7.601 0,0"
               style="fill:#5d3728;fill-opacity:1;fill-rule:nonzero;stroke:none"
               id="path82" /></g></g></g></g></g></svg>
