<?xml version="1.0" encoding="UTF-8" standalone="no"?>
<svg
   xmlns:dc="http://purl.org/dc/elements/1.1/"
   xmlns:cc="http://creativecommons.org/ns#"
   xmlns:rdf="http://www.w3.org/1999/02/22-rdf-syntax-ns#"
   xmlns:svg="http://www.w3.org/2000/svg"
   xmlns="http://www.w3.org/2000/svg"
   version="1.1"
   id="svg169"
   xml:space="preserve"
   width="799.79865"
   height="344"
   viewBox="0 0 799.79865 344"><metadata
     id="metadata175"><rdf:RDF><cc:Work
         rdf:about=""><dc:format>image/svg+xml</dc:format><dc:type
           rdf:resource="http://purl.org/dc/dcmitype/StillImage" /><dc:title></dc:title></cc:Work></rdf:RDF></metadata><defs
     id="defs173"><clipPath
       clipPathUnits="userSpaceOnUse"
       id="clipPath185"><path
         d="M 0,258 H 599.849 V 0 H 0 Z"
         id="path183" /></clipPath></defs><g
     id="g177"
     transform="matrix(1.3333333,0,0,-1.3333333,0,344)"><g
       id="g179"
       transform="matrix(1.1059997,0,0,1.1059997,-31.792268,-13.674049)"><g
         id="g181"
         clip-path="url(#clipPath185)"><g
           id="g187"
           transform="translate(347.9551,121.377)"><path
             d="m 0,0 v 2.862 c 0,5.832 -3.252,10.693 -9.975,10.693 -7.046,0 -10.3,-4.483 -10.3,-9.991 v -20.087 c 0,-5.508 3.254,-9.991 10.3,-9.991 6.723,0 9.975,4.483 9.975,9.991 v 4.482 h -6.723 v -4.698 c 0,-2.538 -0.812,-3.943 -3.252,-3.943 -2.711,0 -3.578,1.405 -3.578,4.321 V 3.402 c 0,2.916 0.867,4.321 3.578,4.321 1.735,0 3.252,-1.405 3.252,-4.699 V 0 Z m 17.184,13.015 h -6.723 v -38.988 h 6.723 z M 27.32,-16.146 c 0,-6.696 3.903,-10.368 10.299,-10.368 6.397,0 10.301,3.672 10.301,10.368 v 29.161 h -6.723 v -29.431 c 0,-2.861 -1.138,-4.266 -3.578,-4.266 -2.439,0 -3.578,1.405 -3.578,4.266 V 13.015 H 27.32 Z M 63.857,7.506 h 2.331 c 3.576,0 4.824,-1.35 4.824,-5.453 v -17.065 c 0,-4.103 -1.248,-5.454 -4.824,-5.454 h -2.331 z m -6.722,-33.48 h 9.974 c 6.938,0 10.625,3.781 10.625,11.773 V 1.242 c 0,7.992 -3.687,11.773 -10.625,11.773 H 57.135 Z M 95.676,5.238 h 0.109 l 2.656,-16.74 H 93.02 Z m -3.631,-22.572 h 7.371 l 1.193,-8.64 h 6.504 l -7.209,38.989 h -8.347 l -7.211,-38.989 h 6.506 z m 28.404,24.84 h 2.33 c 3.578,0 4.825,-1.35 4.825,-5.453 v -17.065 c 0,-4.103 -1.247,-5.454 -4.825,-5.454 h -2.33 z m -6.722,-33.48 h 9.974 c 6.938,0 10.625,3.781 10.625,11.773 V 1.242 c 0,7.992 -3.687,11.773 -10.625,11.773 h -9.974 z m 38.541,31.212 h 0.109 l 2.656,-16.74 h -5.422 z m -3.631,-22.572 h 7.371 l 1.193,-8.64 h 6.504 l -7.209,38.989 h -8.348 l -7.211,-38.989 h 6.506 z m 27.752,-8.64 v 24.355 h 0.109 l 8.564,-24.355 h 5.856 v 38.989 h -6.072 V -9.287 h -0.108 l -8.185,22.302 h -6.235 v -38.989 z m 32.472,31.212 h 0.108 l 2.656,-16.74 h -5.422 z m -3.632,-22.572 h 7.371 l 1.193,-8.64 h 6.504 l -7.209,38.989 h -8.348 l -7.209,-38.989 h 6.504 z"
             style="fill:#5d3728;fill-opacity:1;fill-rule:nonzero;stroke:none"
             id="path189" /></g><g
           id="g191"
           transform="translate(327.6816,142.6309)"><path
             d="m 0,0 h 3.254 v 14.386 h 3.84 c 4.84,0 8.01,3.442 8.01,8.737 0,5.295 -3.17,8.736 -8.01,8.736 H 0 Z m 3.254,28.947 h 3.422 c 3.254,0 5.174,-1.853 5.174,-5.824 0,-3.973 -1.92,-5.825 -5.174,-5.825 H 3.254 Z m 23.5,0.53 h 0.082 l 3.338,-17.122 h -6.76 z M 24.541,31.859 17.908,0 h 3.254 l 1.793,9.443 h 7.678 L 32.428,0 h 3.254 l -6.633,31.859 z m 19.611,-2.912 h 2.838 c 4.674,0 6.176,-1.941 6.176,-5.515 0,-3.575 -1.502,-5.516 -6.176,-5.516 H 44.152 Z M 40.896,0 h 3.256 V 14.914 L 48.408,15.092 53.248,0 h 3.422 l -5.09,15.798 c 3.338,1.235 4.84,4.235 4.84,7.809 0,5.252 -3.422,8.252 -8.262,8.252 h -7.262 z m 19.745,31.859 v -2.912 h 6.175 V 0 h 3.256 v 28.947 h 6.176 v 2.912 z M 81.672,0 h 3.254 v 31.859 h -3.254 z m 26.705,22.24 c -0.502,6.795 -3.256,10.062 -7.721,10.062 -5.383,0 -8.72,-4.325 -8.72,-16.372 0,-12.047 3.337,-16.371 8.72,-16.371 5.133,0 8.055,3.97 8.137,11.032 h -3.254 c -0.084,-5.913 -1.836,-8.12 -4.883,-8.12 -3.797,0 -5.467,3.53 -5.467,13.459 0,9.929 1.67,13.459 5.467,13.459 2.547,0 4.049,-2.118 4.465,-7.149 z M 115.971,0 h 3.254 v 31.859 h -3.254 z m 10.681,0 h 3.254 v 14.386 h 3.84 c 4.84,0 8.012,3.442 8.012,8.737 0,5.295 -3.172,8.736 -8.012,8.736 h -7.094 z m 3.254,28.947 h 3.422 c 3.256,0 5.174,-1.853 5.174,-5.824 0,-3.973 -1.918,-5.825 -5.174,-5.825 h -3.422 z m 23.5,0.53 h 0.084 l 3.338,-17.122 h -6.762 z M 151.193,31.859 144.559,0 h 3.255 l 1.793,9.443 h 7.68 L 159.08,0 h 3.256 l -6.635,31.859 z m 31.963,-9.619 c -0.5,6.795 -3.256,10.062 -7.72,10.062 -5.383,0 -8.721,-4.325 -8.721,-16.372 0,-12.047 3.338,-16.371 8.721,-16.371 5.132,0 8.054,3.97 8.138,11.032 h -3.256 c -0.084,-5.913 -1.836,-8.12 -4.882,-8.12 -3.797,0 -5.465,3.53 -5.465,13.459 0,9.929 1.668,13.459 5.465,13.459 2.546,0 4.048,-2.118 4.464,-7.149 z M 190.75,0 h 3.256 v 31.859 h -3.256 z m 23.742,39.627 h -3.256 l -4.088,-6.09 h 2.086 z m 0.293,-23.697 c 0,-10.811 -2.338,-13.459 -5.26,-13.459 -2.92,0 -5.255,2.648 -5.255,13.459 0,10.81 2.335,13.459 5.255,13.459 2.922,0 5.26,-2.649 5.26,-13.459 m 3.254,0 c 0,11.87 -3.422,16.372 -8.514,16.372 -5.089,0 -8.511,-4.502 -8.511,-16.372 0,-11.87 3.422,-16.371 8.511,-16.371 5.092,0 8.514,4.501 8.514,16.371 m 6.342,15.929 V 0 h 3.256 v 27.712 h 0.082 L 237.066,0 h 3.504 v 31.859 h -3.254 V 8.384 h -0.084 l -7.759,23.475 z"
             style="fill:#5d3728;fill-opacity:1;fill-rule:nonzero;stroke:none"
             id="path193" /></g><path
           d="m 568.252,80.615 h -240.57 v 2.699 h 240.57 z"
           style="fill:#5d3728;fill-opacity:1;fill-rule:nonzero;stroke:none"
           id="path195" /><g
           id="g197"
           transform="translate(89.6167,132.0195)"><path
             d="m 0,0 c -2.494,-3.193 -4.791,-6.548 -6.871,-10.045 7.148,2.143 16.721,3.235 27.855,3.235 15.18,0 33.254,-2.024 52.018,-6.163 35.834,-7.906 75.141,-4.044 87.664,-2.472 C 155.51,-5.346 148.604,3.717 140.367,11.362 122.455,7.941 97.953,4.815 73.766,6.691 39.797,9.326 13.498,5.301 0,0"
             style="fill:#f68313;fill-opacity:1;fill-rule:nonzero;stroke:none"
             id="path199" /></g><g
           id="g201"
           transform="translate(222.603,149.5762)"><path
             d="m 0,0 c -16.035,12.149 -35.979,19.381 -57.572,19.381 -25.428,0 -48.58,-10.022 -65.742,-26.303 16.806,3.893 39.919,5.305 64.664,3.385 C -38.016,-5.138 -16.775,-2.871 0,0"
             style="fill:#fab60a;fill-opacity:1;fill-rule:nonzero;stroke:none"
             id="path203" /></g><g
           id="g205"
           transform="translate(259.3062,85.6523)"><path
             d="m 0,0 c -1.094,8.319 -3.256,16.311 -6.355,23.826 -9.772,-1.374 -52.549,-6.515 -92.473,2.292 -44.652,9.851 -77.311,5.898 -83.824,-0.703 -5.047,-11.631 -7.862,-24.439 -7.862,-37.889 h 0.061 l -0.061,-10e-4 v -1.839 c 9.76,2.626 19.35,4.861 29.313,6.572 2.326,0.332 5.334,0.655 8.014,0.986 17.337,1.335 32.347,-2.328 47.035,-6.316 4.318,-1.011 10.338,-1.997 16.679,-2.677 8.348,-1.554 17.278,-2.796 21.971,-4.847 l 4.615,1.83 1.047,0.37 c 0.328,0.353 42.758,14.65 51.096,17.329 1.672,0.652 3.664,1.015 5.336,1.338 C -3.52,0.364 -1.691,0.264 0,0"
             style="fill:#db4e20;fill-opacity:1;fill-rule:nonzero;stroke:none"
             id="path207" /></g><g
           id="g209"
           transform="translate(267.9258,73.9531)"><path
             d="M 0,0 V 0 C -1.338,3.666 -7.358,5.655 -14.028,5.332 -15.7,5.007 -17.694,4.644 -19.364,3.992 -27.702,1.312 -70.088,-13.02 -70.417,-13.374 h -0.984 l 0.656,-0.657 c 4.678,-3.994 7.328,-8.337 6.018,-12.002 -1.34,-5.005 -8.369,-8.015 -19.691,-8.995 -10.008,-1.017 -22.698,0 -37.352,2.979 1.309,0 3.305,0 4.973,-0.332 10.689,0 20.701,0 28.683,0.686 12.035,0.98 18.026,3.664 18.705,7.983 0.33,3.334 -1.336,5.687 -5.687,7.683 -4.319,2.354 -13.998,3.664 -22.996,5.339 -6.342,0.68 -12.362,1.666 -16.682,2.677 -14.685,3.989 -29.695,7.651 -47.033,6.316 -2.68,-0.331 -5.69,-0.654 -8.014,-0.986 -13.701,-2.352 -26.689,-5.687 -40.39,-9.682 h -1.637 l 20.342,-29.366 c 3.304,0.688 7.33,1.667 10.994,1.667 4.674,0.686 9.351,0.354 13.672,0 5.33,-0.979 19.689,-3.996 33.035,-6.643 14.029,-3.007 27.373,-5.36 32.017,-6.346 3.34,-0.356 6.018,-0.356 9.03,0 6.67,0.33 13.672,3.993 20.343,7.657 1.998,1.336 3.993,2.355 6.016,3.333 L -6.02,-9.356 C 0.654,-5.36 0.654,-2.028 0,0"
             style="fill:#5d3728;fill-opacity:1;fill-rule:nonzero;stroke:none"
             id="path211" /></g><g
           id="g213"
           transform="translate(261.7495,164.7705)"><path
             d="m 0,0 c -0.254,0.149 -0.508,0.302 -0.77,0.44 -4.953,2.622 -10.707,2.861 -15.787,0.657 l -0.31,-0.136 -0.024,-0.011 c -0.328,-0.144 -0.656,-0.288 -0.982,-0.431 l -0.268,-0.12 c -0.187,-0.082 -0.375,-0.166 -0.56,-0.25 -0.295,-0.13 -0.59,-0.262 -0.883,-0.395 -0.453,-0.204 -0.945,-0.429 -1.504,-0.685 L -21.6,-1.165 c -0.212,-0.098 -0.425,-0.196 -0.63,-0.291 -0.29,-0.135 -0.577,-0.27 -0.868,-0.405 -0.884,-0.413 -1.771,-0.836 -2.634,-1.252 -0.28,-0.135 -0.559,-0.271 -0.83,-0.402 -0.346,-0.168 -0.692,-0.338 -1.04,-0.507 l -0.66,-0.327 c -0.285,-0.14 -0.57,-0.282 -0.853,-0.423 -0.28,-0.139 -0.555,-0.278 -0.832,-0.416 l -0.836,-0.424 -0.867,-0.442 -0.819,-0.424 c -0.265,-0.135 -0.527,-0.271 -0.787,-0.408 3.096,-2.418 6.051,-5.011 8.848,-7.761 11.81,-11.614 20.828,-26.056 25.961,-42.229 0.023,0.015 0.045,0.029 0.068,0.044 0.995,0.649 1.987,1.308 2.956,1.96 0.195,0.131 0.39,0.262 0.586,0.394 0.845,0.571 1.712,1.165 2.644,1.812 0.164,0.114 0.332,0.229 0.498,0.346 l 0.029,0.02 c 0.219,0.153 0.438,0.307 0.659,0.461 0.42,0.294 0.851,0.599 1.283,0.906 0.205,0.146 0.408,0.291 0.611,0.437 0.149,0.104 0.293,0.209 0.44,0.313 0,0 0.48,0.347 0.699,0.506 l 0.299,0.215 c 2.338,1.701 4.256,3.967 5.543,6.55 0.9,1.808 1.482,3.786 1.75,5.815 -3.774,-0.261 -7.592,0.401 -11.055,1.966 -4.6,2.077 -8.438,5.663 -10.807,10.101 -0.883,1.657 -1.565,3.426 -2.024,5.258 -1.484,5.949 -0.564,12.12 2.59,17.376 C -1.17,-1.552 -0.6,-0.763 0,0"
             style="fill:#5d3728;fill-opacity:1;fill-rule:nonzero;stroke:none"
             id="path215" /></g><g
           id="g217"
           transform="translate(209.2495,202.4629)"><path
             d="m 0,0 c -2.307,-0.039 -4.578,-0.471 -6.689,-1.303 -3.163,-1.246 -5.905,-3.334 -7.944,-6.039 -0.033,-0.045 -0.066,-0.088 -0.097,-0.132 l -0.329,-0.444 c -0.162,-0.221 -0.322,-0.44 -0.482,-0.662 -0.684,-0.938 -1.375,-1.899 -2.053,-2.858 -0.123,-0.174 -0.248,-0.351 -0.371,-0.527 -0.099,-0.14 -0.199,-0.281 -0.293,-0.416 -0.461,-0.658 -0.922,-1.32 -1.369,-1.97 l -0.027,-0.04 c -0.125,-0.181 -0.25,-0.363 -0.373,-0.545 -0.289,-0.421 -0.571,-0.834 -0.834,-1.224 -0.149,-0.219 -0.297,-0.439 -0.442,-0.655 -0.439,-0.652 -0.879,-1.314 -1.343,-2.021 -0.252,-0.383 -0.504,-0.766 -0.752,-1.147 l -0.036,-0.054 c -0.101,-0.156 -0.205,-0.314 -0.306,-0.471 -0.158,-0.244 -0.317,-0.49 -0.475,-0.735 -0.139,-0.214 -0.275,-0.429 -0.412,-0.642 -0.408,-0.636 -0.809,-1.271 -1.193,-1.883 -0.121,-0.195 -0.244,-0.39 -0.366,-0.586 4.391,-0.769 8.686,-1.816 12.866,-3.123 11.935,-3.732 22.935,-9.578 32.564,-17.1 0.26,0.136 0.522,0.27 0.785,0.407 l 0.821,0.422 0.867,0.443 0.836,0.424 c 0.277,0.139 0.554,0.277 0.83,0.416 0.285,0.142 0.57,0.283 0.855,0.424 l 0.662,0.326 c 0.346,0.17 0.692,0.34 1.037,0.508 0.272,0.132 0.551,0.267 0.831,0.402 0.863,0.416 1.752,0.838 2.634,1.252 0.291,0.135 0.58,0.271 0.868,0.404 0.207,0.096 0.417,0.194 0.63,0.292 l 0.512,0.234 c 0.559,0.257 1.051,0.48 1.504,0.685 0.293,0.133 0.588,0.264 0.883,0.395 0.187,0.084 0.373,0.168 0.56,0.25 l 0.268,0.119 c 0.326,0.144 0.654,0.287 0.982,0.432 l 0.024,0.011 c 1.412,3.881 1.611,8.156 0.551,12.19 -0.225,0.849 -0.51,1.683 -0.842,2.498 -3.819,-2.517 -8.299,-3.836 -12.971,-3.756 -6.131,0.104 -11.853,2.588 -16.115,6.996 -1.486,1.539 -2.748,3.27 -3.75,5.147 C 0.291,-9.506 -0.582,-4.68 0,0"
             style="fill:#f68313;fill-opacity:1;fill-rule:nonzero;stroke:none"
             id="path219" /></g><g
           id="g221"
           transform="translate(194.6167,195.1201)"><path
             d="m 0,0 -0.027,0.252 c -0.096,0.907 -0.262,1.814 -0.494,2.694 -0.354,1.346 -0.872,2.661 -1.538,3.907 -1.353,2.537 -3.336,4.718 -5.718,6.378 -2.036,-4.293 -5.328,-7.849 -9.565,-10.2 -5.361,-2.975 -11.56,-3.684 -17.453,-1.997 -3.039,0.87 -5.812,2.323 -8.244,4.319 -2.344,1.923 -4.258,4.258 -5.69,6.939 -0.294,0.555 -0.552,1.121 -0.8,1.692 -0.084,-0.051 -0.172,-0.096 -0.254,-0.147 -4.754,-2.983 -7.84,-7.85 -8.469,-13.358 l -0.025,-0.226 -0.012,-0.109 c -0.029,-0.252 -0.057,-0.504 -0.084,-0.756 -0.02,-0.18 -0.068,-0.631 -0.068,-0.631 -0.247,-2.314 -0.463,-4.664 -0.649,-6.996 0,0 -0.041,-0.515 -0.055,-0.69 -0.113,-1.462 -0.214,-2.941 -0.302,-4.398 -0.02,-0.322 -0.039,-0.642 -0.055,-0.951 l -0.01,-0.146 c -0.011,-0.217 -0.023,-0.434 -0.035,-0.645 l -0.008,-0.148 c -0.015,-0.266 -0.027,-0.534 -0.043,-0.801 l -0.019,-0.428 -0.035,-0.741 c -0.012,-0.273 -0.026,-0.544 -0.037,-0.804 -0.014,-0.319 -0.026,-0.639 -0.04,-0.953 -0.015,-0.392 -0.027,-0.739 -0.039,-1.059 4.204,1.294 8.524,2.326 12.938,3.077 5.654,0.962 11.465,1.465 17.391,1.465 6.101,0 12.076,-0.532 17.884,-1.55 0.123,0.196 0.244,0.391 0.367,0.586 0.383,0.612 0.788,1.246 1.194,1.882 0.137,0.214 0.273,0.429 0.412,0.642 0.158,0.246 0.316,0.492 0.477,0.736 0.101,0.158 0.203,0.315 0.306,0.473 l 0.033,0.051 c 0.248,0.383 0.5,0.765 0.752,1.148 0.467,0.709 0.905,1.368 1.344,2.02 0.145,0.217 0.293,0.437 0.441,0.656 0.264,0.39 0.545,0.802 0.834,1.224 0.124,0.184 0.249,0.364 0.374,0.545 l 0.027,0.041 c 0.447,0.649 0.908,1.311 1.369,1.969 0.094,0.135 0.193,0.275 0.293,0.416 0.123,0.178 0.248,0.351 0.371,0.527 0.68,0.958 1.369,1.92 2.053,2.858 0.16,0.221 0.32,0.441 0.482,0.662 L -0.1,-0.13 C -0.066,-0.087 -0.033,-0.043 0,0"
             style="fill:#fab60a;fill-opacity:1;fill-rule:nonzero;stroke:none"
             id="path223" /></g><g
           id="g225"
           transform="translate(93.3726,150.4736)"><path
             d="M 0,0 C -0.156,0.301 -0.311,0.6 -0.463,0.896 -0.541,1.048 -0.619,1.2 -0.697,1.354 -0.977,1.897 -1.205,2.347 -1.414,2.765 -1.521,2.978 -1.629,3.19 -1.736,3.405 l -0.008,0.016 c -0.1,0.199 -0.199,0.396 -0.297,0.597 -0.094,0.186 -0.188,0.374 -0.279,0.563 l -0.032,0.061 c -0.109,0.224 -0.22,0.45 -0.332,0.677 -0.275,0.559 -0.541,1.108 -0.744,1.528 -0.092,0.189 -0.183,0.38 -0.275,0.571 l -0.026,0.053 c -0.087,0.182 -0.177,0.374 -0.269,0.565 -0.121,0.252 -0.24,0.505 -0.361,0.759 -0.104,0.219 -0.205,0.438 -0.309,0.657 l -0.019,0.041 c -0.071,0.15 -0.141,0.3 -0.211,0.449 -0.086,0.185 -0.172,0.371 -0.258,0.557 l -0.014,0.029 c -0.117,0.25 -0.232,0.5 -0.348,0.75 -0.3,0.654 -0.593,1.297 -0.867,1.905 -0.133,0.294 -0.263,0.588 -0.396,0.882 l -0.008,0.019 c -0.117,0.261 -0.232,0.522 -0.35,0.784 -0.134,0.307 -0.269,0.615 -0.404,0.923 l -0.047,0.108 c -2.24,0.817 -4.596,1.228 -6.959,1.228 -2.109,0 -4.226,-0.326 -6.279,-0.985 -0.785,-0.251 -1.539,-0.563 -2.279,-0.903 0.253,-0.408 0.498,-0.822 0.722,-1.248 2.307,-4.315 3.176,-9.366 2.446,-14.22 -0.754,-5.026 -3.086,-9.553 -6.747,-13.09 -4.408,-4.261 -10.212,-6.55 -16.341,-6.446 -0.342,0.006 -0.676,0.045 -1.014,0.067 0.059,-1.473 0.26,-2.942 0.637,-4.377 0.402,-1.524 0.982,-3.002 1.722,-4.393 1.405,-2.629 3.405,-4.945 5.782,-6.698 l 0.072,-0.054 0.914,-0.658 c 0.148,-0.109 0.297,-0.217 0.447,-0.323 0.254,-0.183 0.508,-0.365 0.762,-0.545 0.269,-0.193 0.539,-0.386 0.809,-0.575 0.751,-0.533 1.5,-1.059 2.228,-1.563 l 0.4,-0.276 c 0.141,-0.097 0.526,-0.361 0.526,-0.361 0.238,-0.164 0.783,-0.537 0.783,-0.537 0.266,-0.18 0.531,-0.361 0.799,-0.541 0.209,-0.142 0.42,-0.285 0.629,-0.425 0.058,-0.039 0.119,-0.079 0.177,-0.12 l 0.551,-0.369 0.108,-0.07 c 0.193,-0.129 0.383,-0.256 0.572,-0.381 C -20.906,-25.878 -11.836,-11.526 0,0"
             style="fill:#5d3728;fill-opacity:1;fill-rule:nonzero;stroke:none"
             id="path227" /></g><g
           id="g229"
           transform="translate(136.3394,195.373)"><path
             d="m 0,0 -0.135,0.187 c -3.178,4.37 -8.094,7.042 -13.531,7.41 0.328,-4.658 -0.754,-9.295 -3.207,-13.382 -3.154,-5.256 -8.168,-8.969 -14.115,-10.455 -4.992,-1.247 -10.323,-0.77 -15.004,1.345 -1.373,0.621 -2.668,1.389 -3.887,2.262 -2.535,-4.619 -2.746,-9.541 -1.711,-13.469 0.233,-0.881 0.533,-1.752 0.897,-2.588 l 0.134,-0.31 c 0.153,-0.344 0.303,-0.687 0.454,-1.03 2.22,-5.031 4.607,-9.988 7.138,-14.869 2.854,2.778 5.865,5.391 9.022,7.824 9.613,7.411 20.576,13.161 32.455,16.819 0.011,0.32 0.023,0.668 0.039,1.058 0.014,0.315 0.025,0.636 0.039,0.954 0.012,0.26 0.023,0.531 0.037,0.806 l 0.035,0.739 0.022,0.428 c 0.013,0.267 0.025,0.534 0.041,0.8 l 0.007,0.15 c 0.012,0.21 0.024,0.426 0.038,0.645 l 0.007,0.146 c 0.016,0.307 0.036,0.629 0.055,0.95 0.088,1.457 0.19,2.936 0.303,4.398 0.013,0.176 0.055,0.688 0.055,0.688 0.185,2.334 0.402,4.684 0.648,6.996 0,0 0.049,0.453 0.068,0.634 0.028,0.251 0.055,0.503 0.084,0.756 z"
             style="fill:#db4e20;fill-opacity:1;fill-rule:nonzero;stroke:none"
             id="path231" /></g><g
           id="g233"
           transform="translate(284.3926,131.9922)"><path
             d="m 0,0 c -10.256,-2.562 -20.647,3.676 -23.209,13.931 -2.563,10.256 3.676,20.647 13.93,23.209 C 0.977,39.701 11.367,33.465 13.93,23.209 16.49,12.953 10.256,2.563 0,0"
             style="fill:#5d3728;fill-opacity:1;fill-rule:nonzero;stroke:none"
             id="path235" /></g><g
           id="g237"
           transform="translate(245.312,185.8516)"><path
             d="m 0,0 c -7.6,-7.346 -19.717,-7.141 -27.064,0.46 -7.346,7.601 -7.141,19.718 0.46,27.063 7.6,7.347 19.717,7.142 27.063,-0.459 C 7.807,19.463 7.6,7.348 0,0"
             style="fill:#f68313;fill-opacity:1;fill-rule:nonzero;stroke:none"
             id="path239" /></g><g
           id="g241"
           transform="translate(184.5386,212.9551)"><path
             d="m 0,0 c -2.91,-10.163 -13.506,-16.043 -23.668,-13.134 -10.162,2.909 -16.043,13.505 -13.135,23.668 2.91,10.163 13.506,16.043 23.668,13.134 C -2.971,20.76 2.908,10.162 0,0"
             style="fill:#fab60a;fill-opacity:1;fill-rule:nonzero;stroke:none"
             id="path243" /></g><g
           id="g245"
           transform="translate(118.355,206.041)"><path
             d="m 0,0 c 2.563,-10.256 -3.674,-20.646 -13.93,-23.209 -10.256,-2.562 -20.646,3.676 -23.207,13.931 -2.562,10.256 3.674,20.645 13.93,23.208 C -12.953,16.492 -2.561,10.254 0,0"
             style="fill:#db4e20;fill-opacity:1;fill-rule:nonzero;stroke:none"
             id="path247" /></g><g
           id="g249"
           transform="translate(64.4956,166.9609)"><path
             d="m 0,0 c 7.348,-7.602 7.143,-19.718 -0.459,-27.064 -7.6,-7.346 -19.717,-7.141 -27.064,0.46 -7.346,7.6 -7.139,19.717 0.461,27.064 C -19.463,7.807 -7.346,7.6 0,0"
             style="fill:#5d3728;fill-opacity:1;fill-rule:nonzero;stroke:none"
             id="path251" /></g><g
           id="g253"
           transform="translate(330.0781,66.9023)"><path
             d="M 0,0 H 0.928 C 2.492,0 2.975,-0.483 2.975,-2.146 2.975,-3.808 2.492,-4.29 0.928,-4.29 H 0 Z m 0,-11.982 v 5.719 h 1.043 c 2.957,0 4.33,1.142 4.33,4.117 C 5.373,0.83 4,1.971 1.043,1.971 H -2.396 V -11.982 Z M 9.662,0 h 0.85 c 1.295,0 1.779,-0.483 1.779,-2.146 0,-1.662 -0.484,-2.144 -1.779,-2.144 h -0.85 z m 0,-6.263 c 0.426,0 0.928,0.021 1.236,0.059 l 1.702,-5.778 h 2.433 l -2.027,6.32 c 0.81,0.366 1.68,1.274 1.68,3.516 0,2.976 -1.372,4.117 -4.057,4.117 H 7.266 v -13.953 h 2.396 z m 7.266,-2.338 c 0,-1.97 1.16,-3.575 3.672,-3.575 2.511,0 3.671,1.605 3.671,3.575 v 7.19 c 0,1.971 -1.16,3.574 -3.671,3.574 -2.512,0 -3.672,-1.603 -3.672,-3.574 z m 2.396,7.131 c 0,1.044 0.311,1.546 1.276,1.546 0.966,0 1.275,-0.502 1.275,-1.546 v -7.072 c 0,-1.045 -0.309,-1.547 -1.275,-1.547 -0.965,0 -1.276,0.502 -1.276,1.547 z M 30.92,-6.185 33.818,1.971 H 31.383 L 29.779,-3.344 H 29.74 l -1.681,5.315 h -2.434 l 2.898,-8.156 v -5.797 h 2.397 z m 10.937,-5.797 v 2.086 h -4.291 v 4.097 h 3.094 v 2.087 h -3.094 v 3.596 h 4.022 v 2.087 h -6.416 v -13.953 z m 9.122,9.295 v 1.025 c 0,2.087 -1.159,3.825 -3.555,3.825 -2.512,0 -3.672,-1.603 -3.672,-3.574 v -7.19 c 0,-1.97 1.16,-3.575 3.672,-3.575 2.396,0 3.555,1.605 3.555,3.575 v 1.605 h -2.395 v -1.682 c 0,-0.909 -0.291,-1.411 -1.16,-1.411 -0.967,0 -1.276,0.502 -1.276,1.547 v 7.072 c 0,1.044 0.309,1.546 1.276,1.546 0.619,0 1.16,-0.502 1.16,-1.68 v -1.083 z m 3.828,-9.295 h 2.396 v 11.866 h 2.318 v 2.087 h -7.035 v -2.087 h 2.321 z m 6.125,3.381 c 0,-1.97 1.16,-3.575 3.672,-3.575 2.511,0 3.671,1.605 3.671,3.575 v 7.19 c 0,1.971 -1.16,3.574 -3.671,3.574 -2.512,0 -3.672,-1.603 -3.672,-3.574 z m 2.396,7.131 c 0,1.044 0.309,1.546 1.276,1.546 0.966,0 1.275,-0.502 1.275,-1.546 v -7.072 c 0,-1.045 -0.309,-1.547 -1.275,-1.547 -0.967,0 -1.276,0.502 -1.276,1.547 z m 19.443,-10.512 v 2.086 H 79.004 V 1.971 h -2.397 v -13.953 z m 8.157,0 v 2.086 h -4.291 v 4.097 h 3.092 v 2.087 h -3.092 v 3.596 h 4.019 V 1.971 H 84.24 v -13.953 z m 6.222,5.797 2.899,8.156 H 97.613 L 96.01,-3.344 h -0.039 l -1.68,5.315 h -2.436 l 2.899,-8.156 v -5.797 h 2.396 z m 16.834,8.156 -1.699,-8.156 h -0.039 l -1.701,8.156 h -3.15 v -13.953 h 2.087 v 10.9 h 0.039 l 2.165,-10.9 h 1.16 l 2.164,10.9 h 0.039 v -10.9 h 2.086 V 1.971 Z m 8.465,-2.783 h 0.039 l 0.948,-5.992 h -1.934 z m -1.295,-8.079 h 2.629 l 0.426,-3.091 h 2.318 l -2.57,13.953 h -2.977 l -2.57,-13.953 h 2.319 z M 130.314,0 h 0.852 c 1.295,0 1.777,-0.483 1.777,-2.146 0,-1.662 -0.482,-2.144 -1.777,-2.144 h -0.852 z m 0,-6.263 c 0.426,0 0.928,0.021 1.239,0.059 l 1.699,-5.778 h 2.435 l -2.029,6.32 c 0.813,0.366 1.682,1.274 1.682,3.516 0,2.976 -1.373,4.117 -4.059,4.117 h -3.363 v -13.953 h 2.396 z m 14.495,3.576 v 1.025 c 0,2.087 -1.161,3.825 -3.555,3.825 -2.514,0 -3.672,-1.603 -3.672,-3.574 v -7.19 c 0,-1.97 1.158,-3.575 3.672,-3.575 2.394,0 3.555,1.605 3.555,3.575 v 1.605 h -2.397 v -1.682 c 0,-0.909 -0.289,-1.411 -1.158,-1.411 -0.967,0 -1.277,0.502 -1.277,1.547 v 7.072 c 0,1.044 0.31,1.546 1.277,1.546 0.617,0 1.158,-0.502 1.158,-1.68 v -1.083 z m 2.435,-5.914 c 0,-1.97 1.158,-3.575 3.672,-3.575 2.512,0 3.672,1.605 3.672,3.575 v 7.19 c 0,1.971 -1.16,3.574 -3.672,3.574 -2.514,0 -3.672,-1.603 -3.672,-3.574 z m 2.397,7.131 c 0,1.044 0.308,1.546 1.275,1.546 0.967,0 1.275,-0.502 1.275,-1.546 v -7.072 c 0,-1.045 -0.308,-1.547 -1.275,-1.547 -0.967,0 -1.275,0.502 -1.275,1.547 z M 165.432,0 h 0.83 c 1.277,0 1.72,-0.483 1.72,-1.952 V -8.06 c 0,-1.468 -0.443,-1.952 -1.72,-1.952 h -0.83 z m -2.397,-11.982 h 3.557 c 2.472,0 3.787,1.352 3.787,4.212 v 5.528 c 0,2.859 -1.315,4.213 -3.787,4.213 h -3.557 z m 16.35,0 v 2.086 h -4.291 v 4.097 h 3.092 v 2.087 h -3.092 v 3.596 h 4.019 v 2.087 h -6.416 v -13.953 z m 14.67,10.763 c -0.213,1.973 -1.371,3.382 -3.325,3.382 -2.357,0 -3.71,-1.256 -3.71,-3.477 0,-4.001 4.871,-4.736 4.871,-7.499 0,-0.832 -0.561,-1.276 -1.391,-1.276 -0.773,0 -1.334,0.696 -1.432,2.107 l -2.279,-0.329 c 0.096,-2.086 1.371,-3.865 3.594,-3.865 2.242,0 3.789,1.276 3.789,3.575 0,3.789 -4.871,4.928 -4.871,7.305 0,0.87 0.426,1.372 1.199,1.372 0.541,0 1.178,-0.347 1.273,-1.546 z m 1.931,-7.247 c 0,-2.395 1.393,-3.71 3.674,-3.71 2.279,0 3.672,1.315 3.672,3.71 V 1.971 h -2.396 V -8.562 c 0,-1.025 -0.407,-1.527 -1.276,-1.527 -0.871,0 -1.275,0.502 -1.275,1.527 V 1.971 h -2.399 z m 16.352,-3.516 v 2.086 h -4.291 v 4.097 h 3.092 v 2.087 h -3.092 v 3.596 h 4.019 v 2.087 h -6.416 v -13.953 z m 7.941,0 v 2.086 h -3.767 V 1.971 h -2.399 v -13.953 z m 1.469,3.381 c 0,-1.97 1.158,-3.575 3.672,-3.575 2.512,0 3.672,1.605 3.672,3.575 v 7.19 c 0,1.971 -1.16,3.574 -3.672,3.574 -2.514,0 -3.672,-1.603 -3.672,-3.574 z m 2.397,7.131 c 0,1.044 0.31,1.546 1.275,1.546 0.967,0 1.275,-0.502 1.275,-1.546 v -7.072 c 0,-1.045 -0.308,-1.547 -1.275,-1.547 -0.965,0 -1.275,0.502 -1.275,1.547 z m 13.914,0.251 c -0.213,1.973 -1.373,3.382 -3.325,3.382 -2.357,0 -3.711,-1.256 -3.711,-3.477 0,-4.001 4.872,-4.736 4.872,-7.499 0,-0.832 -0.561,-1.276 -1.391,-1.276 -0.774,0 -1.334,0.696 -1.432,2.107 l -2.279,-0.329 c 0.096,-2.086 1.371,-3.865 3.594,-3.865 2.242,0 3.789,1.276 3.789,3.575 0,3.789 -4.871,4.928 -4.871,7.305 0,0.87 0.425,1.372 1.199,1.372 0.541,0 1.178,-0.347 1.273,-1.546 z"
             style="fill:#5d3728;fill-opacity:1;fill-rule:nonzero;stroke:none"
             id="path255" /></g></g></g></g></svg>
